<svg xmlns="http://www.w3.org/2000/svg" xml:space="preserve" width="2000" height="1500" data-id="lg_KXh4UpkiMNLogUw34l" data-version="1" viewBox="0 0 2000 1500"><path fill="#fff" stroke="transparent" d="M0 0h2000v1500H0z"/><g data-padding="20"><g transform="translate(-1651.786 -1245.775)scale(2.5829)"><rect width="560" height="136.73" x="346.167" y="303.76" fill="none" rx="0" ry="0" transform="translate(400.5 419.54)"/><path d="M785.177 803.965h-22.2v-8.35h21.96q7.93 0 11.5-3.96 3.57-3.97 3.57-10.92v-5.27q0-7.08-3.54-10.95t-11.41-3.87h-22.14v-8.29h22.32q12.95 0 18.85 6.08t5.9 16.73v5.81q0 10.77-5.96 16.88t-18.85 6.11m-18.81 25.71h-9.92v-77.32h9.86v45.74l.06 4.48Zm96.19 0h-9.74l.43-14.34-.37-1.51v-18.82l.06-3.44q0-7.2-3.66-10.65t-11.58-3.45q-6.35 0-11.65 1.81-5.29 1.82-9.41 4.24l.91-8.35q2.3-1.39 5.48-2.75 3.17-1.36 7.26-2.27 4.08-.91 8.98-.91 6.35 0 10.8 1.54 4.45 1.55 7.2 4.45t4.02 7.02q1.27 4.11 1.27 9.19Zm-30.06 1.27q-8.78 0-13.47-4.26-4.68-4.27-4.68-12.2v-1.75q0-8.17 5.05-12.19t16.06-5.6l18.69-2.66.55 7.14-18.03 2.6q-6.78.97-9.68 3.3t-2.9 6.87v.96q0 4.66 2.87 7.14t8.62 2.48q5.08 0 8.71-1.75 3.63-1.76 5.87-4.72t3.03-6.59l1.51 6.65h-1.88q-.84 3.87-3.17 7.2t-6.51 5.35q-4.17 2.03-10.64 2.03m49.06-37.39-2.24-7.56 2.42-.12q1.94-7.5 6.66-11.83t12.52-4.33q1.94 0 3.48.31 1.54.3 2.75.72l.61 9.5q-1.52-.48-3.36-.78-1.85-.31-4.08-.31-6.66 0-11.59 3.69t-7.17 10.71m.48 36.12h-9.8v-59.05h9.56l-.48 17.43.72.72Z"/><path d="M933.527 830.885q-6.84 0-11.01-2.06-4.18-2.05-6.05-6.23-1.88-4.17-1.88-10.4v-37.27h9.68v36.12q0 5.8 2.67 8.56 2.66 2.75 8.95 2.75 3.57 0 6.87-.79 3.29-.78 6.2-2.24l-.91 8.41q-2.84 1.46-6.65 2.3-3.82.85-7.87.85m13.92-51.55h-42.54v-7.86h43.44Zm-23.42-6.89h-9.38l-.06-16.58 9.87-1.27Zm51.48 48.09h5.62l-5.14 2.24 17.67-52.15h10.1l-27.77 79.86h-9.92l9.32-26.98 4.29 3.75h-11.13l-19.3-56.63h10.16Zm85.92 9.14h-25.29v-8.29h24.32q7.86 0 11.16-3.36 3.3-3.35 3.3-9.28v-2.18q0-6.05-3.36-9.38t-11.71-3.33h-23.65v-7.92h23.53q7.44 0 10.62-3.24 3.18-3.23 3.18-8.98v-1.09q0-5.69-3.06-8.86-3.05-3.18-10.8-3.18h-23.71v-8.23h24.62q12.34 0 17.67 4.9 5.32 4.9 5.32 13.8v1.21q0 7.07-3.39 11.13-3.39 4.05-10.52 4.84l-.07.36q8.17 1.21 11.86 5.69 3.69 4.47 3.69 12.46v2.48q0 9.62-5.56 15.04-5.57 5.41-18.15 5.41m-22.21 0h-9.92v-77.32h9.92Zm77.37 1.51q-12.7 0-19.27-6.86-6.56-6.87-6.56-19.76v-9.01q0-12.83 6.59-19.66 6.6-6.84 19.24-6.84 12.71 0 19.27 6.84 6.57 6.83 6.57 19.66v9.01q0 12.89-6.57 19.76-6.56 6.86-19.27 6.86m0-7.98q7.87 0 11.95-4.66 4.09-4.66 4.09-13.43v-10.11q0-8.71-4.09-13.34-4.08-4.62-11.95-4.62-7.8 0-11.92 4.62-4.11 4.63-4.11 13.34v10.11q0 8.77 4.11 13.43 4.12 4.66 11.92 4.66m57.61 7.98q-12.71 0-19.27-6.86-6.56-6.87-6.56-19.76v-9.01q0-12.83 6.59-19.66 6.59-6.84 19.24-6.84 12.7 0 19.27 6.84 6.56 6.83 6.56 19.66v9.01q0 12.89-6.56 19.76-6.57 6.86-19.27 6.86m0-7.98q7.86 0 11.95-4.66 4.08-4.66 4.08-13.43v-10.11q0-8.71-4.08-13.34-4.09-4.62-11.95-4.62-7.81 0-11.92 4.62-4.11 4.63-4.11 13.34v10.11q0 8.77 4.11 13.43t11.92 4.66m55.6 7.68q-6.84 0-11.01-2.06-4.18-2.05-6.05-6.23-1.88-4.17-1.88-10.4v-37.27h9.68v36.12q0 5.8 2.66 8.56 2.67 2.75 8.96 2.75 3.57 0 6.87-.79 3.29-.78 6.2-2.24l-.91 8.41q-2.84 1.46-6.66 2.3-3.81.85-7.86.85m13.91-51.55h-42.53v-7.86h43.44Zm-23.41-6.89h-9.38l-.06-16.58 9.86-1.27Zm79.85 57.23h-9.8v-36.72q0-4.78-1.3-8.23t-4.24-5.36q-2.93-1.9-8.01-1.9-4.66 0-8.05 1.75-3.39 1.76-5.47 4.75-2.09 3-2.94 6.81l-2.18-6.96h2.54q.91-3.99 3.33-7.29t6.51-5.26q4.08-1.97 9.95-1.97 7.02 0 11.34 2.66 4.33 2.67 6.32 7.66 2 4.99 2 12.25Zm-39.51 0h-9.8v-80.16h9.74v19.24l-.3 16.94.36.78Z"/><rect width="46.775" height="156.83" x="-260.409" y="320.417" fill="none" stroke="#000" stroke-width="2" rx="20" ry="20" transform="rotate(-90 350.79 -50.77)scale(1.57)"/><rect width="176.343" height="45.2" x="537.996" y="349.525" fill="none" rx="0" ry="0" transform="translate(402.76 299.93)"/><path d="M951.467 685.065q-2.36 0-4.12-.51t-2.92-1.11l-.3-3q1.46.76 3.21 1.32t3.97.56q2.26 0 3.4-.72t1.14-2.14v-.22q0-.92-.43-1.52t-1.55-1.06-3.18-.92q-2.46-.54-3.88-1.27t-2.03-1.81-.61-2.64v-.18q0-2.56 1.78-3.88t5.36-1.32q2.3 0 3.99.52t2.77 1.16l.3 2.74q-1.3-.76-2.98-1.26t-3.78-.5q-1.52 0-2.46.31t-1.36.88-.42 1.37v.16q0 .88.42 1.49t1.51 1.06 3.03.87q2.5.5 3.97 1.2t2.11 1.77.64 2.75v.34q0 2.76-1.92 4.16t-5.66 1.4m14.84-19.96v19.52h-3.24v-19.52Zm-1.62-3.2q-1 0-1.49-.53t-.49-1.45v-.1q0-.94.49-1.46t1.49-.52 1.5.52.5 1.46v.1q0 .94-.5 1.46t-1.5.52m23.28 10.22v12.5h-3.24v-12.14q0-1.58-.43-2.72t-1.4-1.77-2.65-.63q-1.54 0-2.67.58t-1.83 1.57-.98 2.25l-.58-2.3h.7q.32-1.32 1.12-2.41t2.15-1.74 3.31-.65q2.32 0 3.75.88t2.09 2.53.66 4.05m-13.06-2.16v14.66h-3.24v-19.52h3.24l-.14 4.68Zm25.6 15.1q-4.2 0-6.25-2.27t-2.05-6.43v-3.04q0-4.18 2.06-6.43t6.24-2.25q1.24 0 2.26.23t1.83.6 1.37.77l.28 2.82q-.94-.72-2.23-1.22t-3.03-.5q-2.8 0-4.17 1.55t-1.37 4.51v2.88q0 2.9 1.37 4.46t4.17 1.56q1.8 0 3.11-.5t2.33-1.22l-.3 2.86q-.88.6-2.3 1.11t-3.32.51m18.04 0q-4.46 0-6.72-2.18t-2.26-6.24v-3.48q0-4.12 2.1-6.35t6.14-2.23q2.72 0 4.54 1.01t2.74 2.87.92 4.44v.72q0 .64-.05 1.28t-.13 1.26h-2.98q.04-.96.05-1.82t.01-1.58q0-1.78-.57-3.01t-1.7-1.88-2.83-.65q-2.52 0-3.78 1.46t-1.26 4.18v1.86l.02.4v1.86q0 1.22.36 2.2t1.13 1.69 1.96 1.08 2.83.37q1.9 0 3.54-.5t3.08-1.36l-.3 2.8q-1.3.82-3.02 1.31t-3.82.49m6.6-11.34v2.44h-13.88v-2.44Zm28.28 8.08v2.82h-15.84v-3.16l6.38-6.26q1.8-1.78 3.07-3.2t1.95-2.78.68-2.9v-.2q0-1.46-.56-2.5t-1.7-1.58-2.94-.54q-2 0-3.72.64t-3.06 1.48l.32-3q.76-.48 1.8-.94t2.36-.76 2.94-.3q3.96 0 5.94 1.84t1.98 5.26v.28q0 2.02-.72 3.66t-2.1 3.27-3.32 3.55l-5.2 5.14v.78l-1.36-.6Zm12.86 3.3q-4.56 0-6.87-2.56t-2.31-7.38v-6.64q0-4.82 2.3-7.38t6.88-2.56q4.56 0 6.87 2.56t2.31 7.38v6.64q0 4.82-2.31 7.38t-6.87 2.56m0-2.78q2.96 0 4.39-1.81t1.43-5.21v-6.9q0-3.42-1.43-5.23t-4.39-1.81-4.39 1.81-1.43 5.23v6.9q0 3.4 1.43 5.21t4.39 1.81m28.56-.52v2.82h-15.84v-3.16l6.38-6.26q1.8-1.78 3.07-3.2t1.95-2.78.68-2.9v-.2q0-1.46-.56-2.5t-1.7-1.58-2.94-.54q-2 0-3.72.64t-3.06 1.48l.32-3q.76-.48 1.8-.94t2.36-.76 2.94-.3q3.96 0 5.94 1.84t1.98 5.26v.28q0 2.02-.72 3.66t-2.1 3.27-3.32 3.55l-5.2 5.14v.78l-1.36-.6Zm18.4-22.74v25.56h-3.16v-17.58l.1-5.66h-.54l-8.84 15.22v1.52l-1.28-1.24h17.1v2.8h-19.12v-3.32l10.16-17.3Z"/><rect width="272.904" height="45.2" x="489.715" y="349.525" fill="none" rx="0" ry="0" transform="translate(401.45 515.22)"/><path d="M1001.777 900.375q-1.84 0-3.37-.3t-2.73-.74-2-.88l-.34-3.3q1.54.92 3.63 1.61t4.55.69q2.96 0 4.38-1.05t1.42-3.15v-.32q0-1.38-.56-2.26t-1.89-1.48-3.61-1.12q-2.88-.68-4.61-1.61t-2.5-2.33-.77-3.48v-.18q0-3.14 2.06-4.85t6.24-1.71q2.74 0 4.67.56t3.15 1.24l.3 3.04q-1.42-.84-3.31-1.43t-4.33-.59q-1.94 0-3.14.46t-1.74 1.32-.54 2.08v.08q0 1.24.53 2.12t1.86 1.52 3.79 1.24q2.82.66 4.52 1.52t2.47 2.24.77 3.6v.42q0 3.46-2.23 5.25t-6.67 1.79m25.24-14.1 10.4 13.64h-3.92l-8.96-11.74h-2.92v-2.64h2.92l8.84-11.18h3.78l-10.12 12.74Zm-5.14-11.92v25.56h-3.3v-25.56Zm30.3 26.04q-2.9 0-4.86-1.17t-2.95-3.41-.99-5.42v-6.04q0-5.04 2.59-7.75t7.61-2.71q1.8 0 3.27.29t2.61.76 1.96.99l.3 3q-1.38-.88-3.25-1.54t-4.33-.66q-3.72 0-5.55 1.98t-1.83 5.7v5.96q0 3.44 1.61 5.31t4.83 1.87q1.64 0 2.81-.56t1.92-1.48 1.09-2.02v-6.3l.54 1.18h-6.02v-2.76h8.72v10.1l-3.26-.02q-.32 1.24-1.1 2.32t-2.18 1.73-3.54.65m10.08-.48h-3.24l.14-5.28h3.1Z"/></g><path fill="transparent" stroke="transparent" stroke-width="2.679" d="M250 381.696h1500v736.608H250z"/></g></svg>