<svg xmlns="http://www.w3.org/2000/svg" xml:space="preserve" width="2000" height="301" data-id="lg_RCoel2TbDLzvKRbPMy" data-version="1" viewBox="0 0 2000 301"><g data-padding="20"><g transform="translate(10 5.356)scale(.96441)"><path fill="#0080ff" d="M1231.445-.05H745.433v232.714l.505.455v1.413h1.576l74.093 66.518h486.022V68.337ZM821.991 300.04l-72.972-65.508h481.386l75.366 65.508Zm484.628-.606-75.538-65.64V.98l75.538 67.802Z"/><rect width="265.227" height="142.38" x="492.813" y="-321.28" fill="none" rx="0" ry="0" transform="translate(360.89 363.86)"/><path fill="#fff" d="M879.286 53.18h14.26q8.64 0 13.53 4.32 4.9 4.32 4.9 12.09 0 3.1-.94 6.12-.93 3.03-2.99 5.51-2.05 2.49-5.4 3.96-3.34 1.48-8.17 1.48h-7.7v18.72h-7.49Zm7.49 26.13h7.63q2.95 0 4.93-.97t3.1-2.48q1.11-1.51 1.58-3.17t.47-2.95q0-1.44-.47-3.06t-1.58-3.03q-1.12-1.4-2.99-2.3t-4.68-.9h-7.99Zm37.94 26.07h-7.49l22.97-54.36h.43l22.97 54.36h-8.71l-16.7-42.55 5.4-3.53Zm4.18-13.11 2.23-6.48h18.72l2.59 6.48Zm44.13-39.09h14.19q5.47 0 9.72 1.91 4.25 1.9 6.66 5.54t2.41 8.96q0 3.1-.94 6.12-.93 3.03-2.98 5.48-2.06 2.44-5.48 3.92t-8.38 1.48h-7.71v18.79h-7.49Zm7.49 26.13h7.56q4.03 0 6.23-1.54 2.2-1.55 3.06-3.75.86-2.19.86-4.14 0-1.44-.5-3.06t-1.62-3.09q-1.12-1.48-2.99-2.38t-4.61-.9h-7.99Zm7.35 4.61 9-.14 13.53 21.6h-8.78Zm29.16-23.47v-7.27h34.77v7.27h-13.82v44.93h-7.56V60.45Zm59.48 44.93V88.17l-19.3-34.99h9.29l15.19 28.51-2.37.14 15.04-28.65h9.22l-19.51 34.99v17.21Zm-215.39 8.82h13.75q7.92 0 12.46 3.24 4.53 3.24 4.53 9.93 0 4.25-1.94 7.31t-5.44 4.79q-3.49 1.73-8.17 1.94l-1.08-4.03q5.47.15 9.79 1.91t6.88 4.9q2.56 3.13 2.56 7.45 0 3.96-1.48 6.77-1.48 2.8-3.96 4.57-2.48 1.76-5.62 2.59-3.13.83-6.51.83h-15.77Zm7.49 22.61h7.63q4.1 0 5.98-2.34 1.87-2.34 1.87-5.51 0-3.89-2.41-5.69-2.42-1.8-6.45-1.8h-6.62Zm0 22.6h7.92q4.25 0 7.2-1.87t2.95-5.83q0-2.88-1.58-4.54-1.59-1.65-4.04-2.37-2.44-.72-5.04-.72h-7.41Zm34.12-19.08q0-5.4 2.05-10.22t5.72-8.53 8.5-5.83q4.82-2.13 10.29-2.13 5.48 0 10.34 2.13 4.86 2.12 8.56 5.83 3.71 3.71 5.8 8.53t2.09 10.22q0 5.55-2.09 10.37-2.09 4.83-5.8 8.5-3.7 3.67-8.56 5.72t-10.34 2.05q-5.47 0-10.29-2.05-4.83-2.05-8.5-5.65t-5.72-8.46-2.05-10.48m7.77.08q0 5.32 2.52 9.72 2.52 4.39 6.84 6.98t9.65 2.59q5.26 0 9.5-2.59 4.25-2.59 6.77-6.98 2.52-4.4 2.52-9.8t-2.55-9.82q-2.56-4.43-6.84-7.02-4.29-2.6-9.54-2.6-5.33 0-9.62 2.63-4.28 2.63-6.76 7.06-2.49 4.43-2.49 9.83m53.86-.08q0-5.4 2.05-10.22t5.72-8.53q3.68-3.71 8.5-5.83 4.82-2.13 10.3-2.13 5.47 0 10.33 2.13 4.86 2.12 8.57 5.83 3.7 3.71 5.79 8.53t2.09 10.22q0 5.55-2.09 10.37-2.09 4.83-5.79 8.5-3.71 3.67-8.57 5.72t-10.33 2.05q-5.48 0-10.3-2.05t-8.5-5.65q-3.67-3.6-5.72-8.46t-2.05-10.48m7.77.08q0 5.32 2.52 9.72 2.52 4.39 6.84 6.98t9.65 2.59q5.26 0 9.51-2.59 4.24-2.59 6.76-6.98 2.52-4.4 2.52-9.8t-2.55-9.82q-2.56-4.43-6.84-7.02-4.29-2.6-9.54-2.6-5.33 0-9.61 2.63-4.29 2.63-6.77 7.06-2.49 4.43-2.49 9.83m53.29-18.94v-7.27h34.78v7.27h-13.82v44.93h-7.56v-44.93Zm79.92-7.27h7.56v52.2h-7.56v-22.61h-26.71v22.61h-7.49v-52.2h7.49v22.39h26.71Z"/><rect width="79.679" height="22.6" x="585.586" y="-261.39" fill="none" rx="0" ry="0" transform="translate(360.89 274.54)"/><path fill="#fff" d="M952.686 30.43q-1.44 0-2.48-.57t-1.6-1.58-.56-2.29q0-1.24.63-2.25t1.69-1.61 2.36-.6q1.68 0 2.79.97t1.49 2.73l-6.82 2.36-.48-1.16 5.48-2-.42.28q-.24-.64-.76-1.11t-1.42-.47q-1.12 0-1.83.77t-.71 1.97q0 1.28.76 2.06t1.92.78q.54 0 1.04-.19t.94-.51l.92 1.5q-.64.42-1.41.67t-1.53.25m9-.02q-.92 0-1.76-.33t-1.42-.95l.86-1.16q.52.5 1.09.76t1.07.26q.58 0 1.02-.23t.44-.77q0-.44-.29-.68t-.73-.4-.94-.3q-1.04-.34-1.59-.97t-.55-1.49q0-.66.33-1.25t1.01-.96 1.68-.37q.88 0 1.58.21t1.3.71l-.78 1.22q-.36-.36-.85-.55t-.89-.21q-.54 0-.94.25t-.4.67.28.67.73.4.91.31q.92.3 1.53.82t.61 1.52q0 .76-.36 1.4t-1.09 1.03-1.85.39m6.66-8.52v-3.68h2.04v3.68h2.24v1.58h-2.24v6.76h-2.04v-6.76h-1.48v-1.58Zm5.54 7.22q0-.48.35-.81t.77-.33q.4 0 .74.33t.34.81q0 .5-.34.81t-.74.31q-.42 0-.77-.31t-.35-.81m15.5 1.12h-9.06q1.24-1.26 2.41-2.44t2.09-2.29 1.46-2.17.54-2.04q0-.82-.34-1.35t-.89-.78-1.17-.25q-.84 0-1.35.34t-.75.83-.24.95q0 .66.2 1.18t.58.9l-1.3 1.18q-.48-.3-.82-.87t-.52-1.2-.18-1.13q0-1.1.54-2.05t1.6-1.55 2.58-.6q1.28 0 2.22.59t1.47 1.55.53 2.1q0 1.3-.66 2.54t-1.66 2.44-2.04 2.4l-.94-.3h5.7Zm7.12.06q-1.62 0-2.87-.8t-1.96-2.3-.71-3.6q0-2.28.69-3.76t1.94-2.21 2.91-.71q1.62-.02 2.87.78t1.96 2.3.71 3.6q0 2.16-.71 3.66t-1.96 2.27-2.87.77m-.02-2.02q1.14 0 1.89-.6t1.12-1.67.37-2.45-.37-2.42-1.12-1.62-1.89-.58q-1.12 0-1.86.59t-1.11 1.64-.37 2.43q0 1.36.37 2.42t1.11 1.66 1.86.6m16.4 1.96h-9.06q1.24-1.26 2.41-2.44t2.09-2.29 1.46-2.17.54-2.04q0-.82-.34-1.35t-.89-.78-1.17-.25q-.84 0-1.35.34t-.75.83-.24.95q0 .66.2 1.18t.58.9l-1.3 1.18q-.48-.3-.82-.87t-.52-1.2-.18-1.13q0-1.1.54-2.05t1.6-1.55 2.58-.6q1.28 0 2.22.59t1.47 1.55.53 2.1q0 1.3-.66 2.54t-1.66 2.44-2.04 2.4l-.94-.3h5.7Zm7.14-3.14h-6.02v-.02l8.1-10.18h.02v8.6h1.7v1.6h-1.7v3.14h-2.1Zm0-5.82.12.32-3.08 4-.3-.1h3.26Z"/><rect width="257.782" height="28.25" x="496.535" y="-264.216" fill="none" rx="0" ry="0" transform="translate(360.89 448.49)"/><path fill="#fff" d="m875.746 202.02 1.12 2.35q-.42.28-1.21.67-.79.38-1.85.66-1.06.27-2.31.25-2.13-.03-3.8-.75-1.68-.73-2.87-1.99-1.18-1.26-1.81-2.9-.62-1.64-.62-3.49 0-2.05.66-3.76t1.86-2.97q1.2-1.27 2.84-1.97t3.59-.7q1.65 0 3 .45t2.27 1.03l-1.05 2.45q-.72-.5-1.79-.95-1.06-.45-2.36-.45-1.7 0-3.14.9-1.43.9-2.3 2.42-.86 1.53-.86 3.43 0 1.92.79 3.45.79 1.52 2.24 2.4 1.45.87 3.4.87 1.4 0 2.46-.42 1.06-.43 1.74-.98m8.89 3.99q-1.48 0-2.68-.63-1.2-.62-1.9-1.83-.7-1.22-.7-3.02 0-1.75.74-3.01t1.95-1.95 2.64-.69q1.5 0 2.47.63.98.62 1.5 1.5l-.15.4.25-2.1h2.33v10.45h-2.53v-2.65l.25.62q-.1.2-.42.58-.33.37-.85.76-.53.39-1.27.66-.73.28-1.63.28m.67-2.08q1.25 0 2.11-.66.87-.66 1.14-1.81v-2.15q-.3-1.03-1.21-1.7-.91-.68-2.11-.68-.9 0-1.65.44t-1.2 1.23q-.45.78-.45 1.81 0 1 .46 1.8t1.24 1.26q.77.46 1.67.46m15.99 2.07q-1.15 0-2.22-.51-1.06-.52-1.66-1.42l.15-.77v7.47h-2.52v-15.65h2.17l.35 2.58-.25-.73q.75-.92 1.89-1.51t2.56-.59q1.48 0 2.65.7 1.18.7 1.85 1.97.68 1.26.68 2.96t-.74 2.94q-.74 1.23-2.01 1.9-1.28.66-2.9.66m-.5-2q.97 0 1.78-.45.82-.45 1.3-1.24.49-.79.49-1.79 0-1.02-.45-1.82t-1.22-1.25q-.78-.45-1.73-.45-1.3 0-2.19.7-.88.7-1.21 1.85v1.87q.2 1.13 1.1 1.85.9.73 2.13.73m10.2-8.67v-4.6h2.55v4.6h2.8v1.98h-2.8v8.45h-2.55v-8.45h-1.85v-1.98Zm11.46 10.85q-1.45 0-2.37-.87-.93-.88-.98-2.25v-7.75h2.53v6.85q.05.82.47 1.32.43.5 1.35.55.85 0 1.53-.51.67-.51 1.06-1.41t.39-2.03v-4.77h2.52v10.45h-2.27l-.2-2.45.1.4q-.48 1.07-1.59 1.77t-2.54.7m10.49-10.88h2.25l.25 3-.1-.4q.42-.95 1.18-1.63.77-.67 1.6-1.03.84-.37 1.42-.37l-.13 2.5q-1.17-.07-2.06.45-.89.53-1.39 1.4-.5.88-.5 1.88v4.65h-2.52Zm14.42 10.71q-1.8 0-3.1-.71-1.3-.72-2-1.98t-.7-2.86q0-1.55.79-2.81.79-1.27 2.11-2.02 1.33-.75 2.95-.75 2.1 0 3.49 1.22 1.39 1.21 1.86 3.41l-8.52 2.95-.6-1.45 6.85-2.5-.53.35q-.3-.8-.95-1.39t-1.77-.59q-1.4 0-2.29.97-.89.96-.89 2.46 0 1.6.95 2.57.95.98 2.4.98.68 0 1.3-.24.63-.24 1.18-.64l1.15 1.88q-.8.52-1.77.84-.96.31-1.91.31m14.83 4.76h-2.45l6.87-15.47h2.33Zm2.12-6.22-1.97 1.27-5.03-10.52h2.83Zm6.13-4.12q0-1.57.75-2.83.75-1.27 2.07-1.99 1.33-.73 3.03-.73 1.72 0 3.01.73 1.29.72 2 1.99.71 1.26.71 2.83 0 1.58-.72 2.84-.73 1.26-2.02 2-1.28.74-3.03.74-1.65 0-2.97-.68-1.31-.67-2.07-1.93-.76-1.27-.76-2.97m2.55.03q0 .97.42 1.76.43.79 1.16 1.25.74.46 1.64.46 1.43 0 2.34-1t.91-2.47q0-1.48-.91-2.49t-2.34-1.01q-.92 0-1.65.47-.72.48-1.15 1.28-.42.8-.42 1.75m15.42 5.72q-1.45 0-2.37-.87-.93-.88-.98-2.25v-7.75h2.53v6.85q.05.82.47 1.32.43.5 1.35.55.85 0 1.53-.51.67-.51 1.06-1.41t.39-2.03v-4.77h2.52v10.45h-2.27l-.2-2.45.1.4q-.48 1.07-1.59 1.77t-2.54.7m10.48-10.88h2.25l.25 3-.1-.4q.42-.95 1.18-1.63.77-.67 1.6-1.03.84-.37 1.42-.37l-.13 2.5q-1.17-.07-2.06.45-.89.53-1.39 1.4-.5.88-.5 1.88v4.65h-2.52Zm12.77 0h2.28l.22 2.27-.12-.2q.57-1.17 1.63-1.83 1.07-.67 2.44-.67 1.3 0 2.18.6.87.6 1.07 1.7l-.12.1q.62-1.12 1.67-1.76t2.2-.64q1.55 0 2.45.87.9.86.93 2.26v7.75h-2.5v-6.8q-.03-.8-.37-1.33-.33-.52-1.21-.57-.9 0-1.59.55-.68.55-1.07 1.42-.39.88-.41 1.88v4.85h-2.53v-6.8q-.02-.8-.39-1.33-.36-.52-1.23-.57-.88 0-1.57.55-.68.55-1.06 1.44-.37.88-.37 1.88v4.83h-2.53Zm19.88 5.13q0-1.57.75-2.83.75-1.27 2.07-1.99 1.33-.73 3.03-.73 1.72 0 3.01.73 1.29.72 2 1.99.71 1.26.71 2.83 0 1.58-.72 2.84-.73 1.26-2.02 2-1.28.74-3.03.74-1.65 0-2.97-.68-1.31-.67-2.07-1.93-.76-1.27-.76-2.97m2.55.03q0 .97.42 1.76.43.79 1.16 1.25.74.46 1.64.46 1.43 0 2.34-1t.91-2.47q0-1.48-.91-2.49t-2.34-1.01q-.92 0-1.65.47-.72.48-1.15 1.28-.42.8-.42 1.75m12.07-5.16h2.28l.22 2.27-.12-.2q.57-1.17 1.63-1.83 1.07-.67 2.44-.67 1.3 0 2.18.6.87.6 1.07 1.7l-.12.1q.62-1.12 1.67-1.76t2.2-.64q1.55 0 2.45.87.9.86.93 2.26v7.75h-2.5v-6.8q-.03-.8-.37-1.33-.33-.52-1.21-.57-.9 0-1.59.55-.68.55-1.07 1.42-.39.88-.41 1.88v4.85h-2.53v-6.8q-.02-.8-.39-1.33-.36-.52-1.23-.57-.88 0-1.57.55-.68.55-1.06 1.44-.37.88-.37 1.88v4.83h-2.53Zm25.68 10.71q-1.8 0-3.1-.71-1.3-.72-2-1.98t-.7-2.86q0-1.55.78-2.81.79-1.27 2.12-2.02 1.32-.75 2.95-.75 2.1 0 3.48 1.22 1.39 1.21 1.87 3.41l-8.53 2.95-.6-1.45 6.85-2.5-.52.35q-.3-.8-.95-1.39t-1.78-.59q-1.4 0-2.29.97-.88.96-.88 2.46 0 1.6.95 2.57.95.98 2.4.98.67 0 1.3-.24.62-.24 1.17-.64l1.15 1.88q-.8.52-1.76.84-.96.31-1.91.31m8.22-10.7h2.28l.22 2.42-.1-.35q.5-1.12 1.61-1.8 1.12-.67 2.62-.67 1.47 0 2.42.86t.98 2.26v7.73h-2.53v-6.85q-.02-.8-.47-1.31-.45-.52-1.4-.54-1.33 0-2.22 1.1-.88 1.1-.88 2.82v4.78h-2.53Zm15 .02v-4.6h2.55v4.6h2.8v1.98h-2.8v8.45h-2.55v-8.45h-1.85v-1.98Zm11.15 10.65q-1.15 0-2.2-.41t-1.77-1.19l1.07-1.45q.65.63 1.36.95.72.33 1.34.33.73 0 1.28-.29t.55-.96q0-.55-.37-.85-.36-.3-.91-.5t-1.17-.38q-1.3-.42-1.99-1.21t-.69-1.86q0-.83.41-1.56.42-.74 1.27-1.2.85-.47 2.1-.47 1.1 0 1.97.27.88.26 1.63.88l-.98 1.53q-.45-.45-1.06-.69t-1.11-.26q-.68 0-1.18.31t-.5.84q0 .52.35.84.35.31.91.5.57.18 1.14.38 1.15.38 1.91 1.03.77.65.77 1.9 0 .95-.45 1.75t-1.37 1.29q-.91.48-2.31.48"/></g><path fill="transparent" stroke="transparent" d="M719 0h562v301H719z"/></g></svg>